ISO-10303-21;
HEADER;
FILE_DESCRIPTION (( 'STEP AP214' ),
    '1' );
FILE_NAME ('Part1.STEP',
    '2026-09-06T18:18:25',
    ( '' ),
    ( '' ),
    'SwSTEP 2.0',
    'SolidWorks 2025',
    '' );
FILE_SCHEMA (( 'AUTOMOTIVE_DESIGN' ));
ENDSEC;

DATA;
#1 = ORIENTED_EDGE ( 'NONE', *, *, #170, .F. ) ;
#2 = LINE ( 'NONE', #93, #102 ) ;
#3 = PRODUCT_RELATED_PRODUCT_CATEGORY ( 'part', '', ( #21 ) ) ;
#4 = VECTOR ( 'NONE', #187, 1000.000000000000000 ) ;
#5 = VERTEX_POINT ( 'NONE', #103 ) ;
#6 = DIRECTION ( 'NONE',  ( 0.000000000000000000, -0.000000000000000000, -1.000000000000000000 ) ) ;
#7 =( NAMED_UNIT ( * ) SI_UNIT ( $, .STERADIAN. ) SOLID_ANGLE_UNIT ( ) );
#8 = VECTOR ( 'NONE', #82, 1000.000000000000000 ) ;
#9 = DIRECTION ( 'NONE',  ( 0.000000000000000000, -1.000000000000000000, 0.000000000000000000 ) ) ;
#10 = EDGE_LOOP ( 'NONE', ( #163, #60, #79, #112 ) ) ;
#11 = DIRECTION ( 'NONE',  ( -0.000000000000000000, -1.000000000000000000, -0.000000000000000000 ) ) ;
#12 = VECTOR ( 'NONE', #110, 1000.000000000000000 ) ;
#13 = CARTESIAN_POINT ( 'NONE',  ( 26.14648791150464646, -19.77126400715627241, 50.00000000000000000 ) ) ;
#14 = PLANE ( 'NONE',  #18 ) ;
#15 = VERTEX_POINT ( 'NONE', #175 ) ;
#16 = DIRECTION ( 'NONE',  ( -1.000000000000000000, 0.000000000000000000, 0.000000000000000000 ) ) ;
#17 = CARTESIAN_POINT ( 'NONE',  ( -26.14648791150464646, -19.77126400715627241, 50.00000000000000000 ) ) ;
#18 = AXIS2_PLACEMENT_3D ( 'NONE', #33, #91, #36 ) ;
#19 = AXIS2_PLACEMENT_3D ( 'NONE', #137, #42, #154 ) ;
#20 = EDGE_CURVE ( 'NONE', #173, #5, #49, .T. ) ;
#21 = PRODUCT ( 'Part1', 'Part1', '', ( #55 ) ) ;
#22 = ORIENTED_EDGE ( 'NONE', *, *, #148, .T. ) ;
#23 = ORIENTED_EDGE ( 'NONE', *, *, #41, .T. ) ;
#24 = LINE ( 'NONE', #97, #131 ) ;
#25 = ORIENTED_EDGE ( 'NONE', *, *, #178, .F. ) ;
#26 = SHAPE_DEFINITION_REPRESENTATION ( #120, #109 ) ;
#27 = DIRECTION ( 'NONE',  ( -1.000000000000000000, -0.000000000000000000, -0.000000000000000000 ) ) ;
#28 = EDGE_LOOP ( 'NONE', ( #1, #127, #25, #38 ) ) ;
#29 = PRESENTATION_STYLE_ASSIGNMENT (( #125 ) ) ;
#30 = DIRECTION ( 'NONE',  ( -0.000000000000000000, -0.000000000000000000, -1.000000000000000000 ) ) ;
#31 = AXIS2_PLACEMENT_3D ( 'NONE', #51, #39, #150 ) ;
#32 = DIRECTION ( 'NONE',  ( 1.000000000000000000, 0.000000000000000000, 0.000000000000000000 ) ) ;
#33 = CARTESIAN_POINT ( 'NONE',  ( 0.000000000000000000, 0.000000000000000000, 0.000000000000000000 ) ) ;
#34 = EDGE_CURVE ( 'NONE', #138, #5, #141, .T. ) ;
#35 = ORIENTED_EDGE ( 'NONE', *, *, #177, .T. ) ;
#36 = DIRECTION ( 'NONE',  ( -1.000000000000000000, 0.000000000000000000, -0.000000000000000000 ) ) ;
#37 = ORIENTED_EDGE ( 'NONE', *, *, #46, .T. ) ;
#38 = ORIENTED_EDGE ( 'NONE', *, *, #172, .F. ) ;
#39 = DIRECTION ( 'NONE',  ( 1.000000000000000000, 0.000000000000000000, 0.000000000000000000 ) ) ;
#40 = PLANE ( 'NONE',  #114 ) ;
#41 = EDGE_CURVE ( 'NONE', #149, #129, #186, .T. ) ;
#42 = DIRECTION ( 'NONE',  ( 0.000000000000000000, 0.000000000000000000, 1.000000000000000000 ) ) ;
#43 = FACE_OUTER_BOUND ( 'NONE', #132, .T. ) ;
#44 = UNCERTAINTY_MEASURE_WITH_UNIT (LENGTH_MEASURE( 1.000000000000000082E-05 ), #168, 'distance_accuracy_value', 'NONE');
#45 = AXIS2_PLACEMENT_3D ( 'NONE', #128, #71, #59 ) ;
#46 = EDGE_CURVE ( 'NONE', #129, #138, #116, .T. ) ;
#47 = EDGE_LOOP ( 'NONE', ( #78, #117, #142, #166 ) ) ;
#48 = PLANE ( 'NONE',  #45 ) ;
#49 = LINE ( 'NONE', #105, #95 ) ;
#50 = FACE_OUTER_BOUND ( 'NONE', #28, .T. ) ;
#51 = CARTESIAN_POINT ( 'NONE',  ( -26.14648791150464646, -19.77126400715627241, 50.00000000000000000 ) ) ;
#52 = VERTEX_POINT ( 'NONE', #74 ) ;
#53 = DIRECTION ( 'NONE',  ( -0.000000000000000000, -0.000000000000000000, -1.000000000000000000 ) ) ;
#54 = ADVANCED_FACE ( 'NONE', ( #174 ), #48, .F. ) ;
#55 = PRODUCT_CONTEXT ( 'NONE', #134, 'mechanical' ) ;
#56 = DIRECTION ( 'NONE',  ( 0.000000000000000000, 0.000000000000000000, -1.000000000000000000 ) ) ;
#57 = PLANE ( 'NONE',  #69 ) ;
#58 = CARTESIAN_POINT ( 'NONE',  ( -26.14648791150464646, -19.77126400715627241, 50.00000000000000000 ) ) ;
#59 = DIRECTION ( 'NONE',  ( 0.000000000000000000, -0.000000000000000000, 1.000000000000000000 ) ) ;
#60 = ORIENTED_EDGE ( 'NONE', *, *, #148, .F. ) ;
#61 = DIRECTION ( 'NONE',  ( 1.000000000000000000, 0.000000000000000000, 0.000000000000000000 ) ) ;
#62 = ORIENTED_EDGE ( 'NONE', *, *, #34, .F. ) ;
#63 = CARTESIAN_POINT ( 'NONE',  ( -26.14648791150464646, 19.77126400715627241, 0.000000000000000000 ) ) ;
#64 = APPLICATION_PROTOCOL_DEFINITION ( 'draft international standard', 'automotive_design', 1998, #134 ) ;
#65 = CARTESIAN_POINT ( 'NONE',  ( 26.14648791150464646, -19.77126400715627241, 50.00000000000000000 ) ) ;
#66 =( NAMED_UNIT ( * ) PLANE_ANGLE_UNIT ( ) SI_UNIT ( $, .RADIAN. ) );
#67 = FILL_AREA_STYLE_COLOUR ( '', #161 ) ;
#68 =( NAMED_UNIT ( * ) SI_UNIT ( $, .STERADIAN. ) SOLID_ANGLE_UNIT ( ) );
#69 = AXIS2_PLACEMENT_3D ( 'NONE', #83, #56, #101 ) ;
#70 = DIRECTION ( 'NONE',  ( -0.000000000000000000, -0.000000000000000000, -1.000000000000000000 ) ) ;
#71 = DIRECTION ( 'NONE',  ( 0.000000000000000000, 1.000000000000000000, 0.000000000000000000 ) ) ;
#72 = EDGE_LOOP ( 'NONE', ( #153, #77, #90, #22 ) ) ;
#73 = VECTOR ( 'NONE', #30, 1000.000000000000000 ) ;
#74 = CARTESIAN_POINT ( 'NONE',  ( 26.14648791150464646, 19.77126400715627241, 50.00000000000000000 ) ) ;
#75 = VECTOR ( 'NONE', #70, 1000.000000000000000 ) ;
#76 = APPLICATION_CONTEXT ( 'automotive_design' ) ;
#77 = ORIENTED_EDGE ( 'NONE', *, *, #136, .F. ) ;
#78 = ORIENTED_EDGE ( 'NONE', *, *, #178, .T. ) ;
#79 = ORIENTED_EDGE ( 'NONE', *, *, #85, .F. ) ;
#80 = LINE ( 'NONE', #133, #8 ) ;
#81 = STYLED_ITEM ( 'NONE', ( #29 ), #183 ) ;
#82 = DIRECTION ( 'NONE',  ( -0.000000000000000000, -0.000000000000000000, -1.000000000000000000 ) ) ;
#83 = CARTESIAN_POINT ( 'NONE',  ( 0.000000000000000000, 0.000000000000000000, 50.00000000000000000 ) ) ;
#84 = FILL_AREA_STYLE ('',( #67 ) ) ;
#85 = EDGE_CURVE ( 'NONE', #138, #52, #2, .T. ) ;
#86 = SURFACE_SIDE_STYLE ('',( #169 ) ) ;
#87 = PRODUCT_DEFINITION_CONTEXT ( 'detailed design', #76, 'design' ) ;
#88 = CLOSED_SHELL ( 'NONE', ( #100, #157, #107, #54, #184, #89 ) ) ;
#89 = ADVANCED_FACE ( 'NONE', ( #50 ), #14, .T. ) ;
#90 = ORIENTED_EDGE ( 'NONE', *, *, #94, .F. ) ;
#91 = DIRECTION ( 'NONE',  ( 0.000000000000000000, 0.000000000000000000, -1.000000000000000000 ) ) ;
#92 = EDGE_LOOP ( 'NONE', ( #115, #62, #159, #35 ) ) ;
#93 = CARTESIAN_POINT ( 'NONE',  ( 26.14648791150464646, -19.77126400715627241, 50.00000000000000000 ) ) ;
#94 = EDGE_CURVE ( 'NONE', #52, #149, #118, .T. ) ;
#95 = VECTOR ( 'NONE', #32, 1000.000000000000000 ) ;
#96 = UNCERTAINTY_MEASURE_WITH_UNIT (LENGTH_MEASURE( 1.000000000000000082E-05 ), #140, 'distance_accuracy_value', 'NONE');
#97 = CARTESIAN_POINT ( 'NONE',  ( -26.14648791150464646, 19.77126400715627241, 50.00000000000000000 ) ) ;
#98 = ORIENTED_EDGE ( 'NONE', *, *, #94, .T. ) ;
#99 = CARTESIAN_POINT ( 'NONE',  ( -26.14648791150464646, -19.77126400715627241, 50.00000000000000000 ) ) ;
#100 = ADVANCED_FACE ( 'NONE', ( #106 ), #158, .F. ) ;
#101 = DIRECTION ( 'NONE',  ( -1.000000000000000000, 0.000000000000000000, -0.000000000000000000 ) ) ;
#102 = VECTOR ( 'NONE', #104, 1000.000000000000000 ) ;
#103 = CARTESIAN_POINT ( 'NONE',  ( 26.14648791150464646, -19.77126400715627241, 0.000000000000000000 ) ) ;
#104 = DIRECTION ( 'NONE',  ( 0.000000000000000000, 1.000000000000000000, 0.000000000000000000 ) ) ;
#105 = CARTESIAN_POINT ( 'NONE',  ( -26.14648791150464646, -19.77126400715627241, 0.000000000000000000 ) ) ;
#106 = FACE_OUTER_BOUND ( 'NONE', #10, .T. ) ;
#107 = ADVANCED_FACE ( 'NONE', ( #145 ), #179, .F. ) ;
#108 = MECHANICAL_DESIGN_GEOMETRIC_PRESENTATION_REPRESENTATION (  '', ( #81 ), #152 ) ;
#109 = ADVANCED_BREP_SHAPE_REPRESENTATION ( 'Part1', ( #183, #19 ), #164 ) ;
#110 = DIRECTION ( 'NONE',  ( 0.000000000000000000, 1.000000000000000000, 0.000000000000000000 ) ) ;
#111 = AXIS2_PLACEMENT_3D ( 'NONE', #143, #16, #160 ) ;
#112 = ORIENTED_EDGE ( 'NONE', *, *, #34, .T. ) ;
#113 = LINE ( 'NONE', #171, #73 ) ;
#114 = AXIS2_PLACEMENT_3D ( 'NONE', #121, #9, #6 ) ;
#115 = ORIENTED_EDGE ( 'NONE', *, *, #20, .T. ) ;
#116 = LINE ( 'NONE', #17, #123 ) ;
#117 = ORIENTED_EDGE ( 'NONE', *, *, #177, .F. ) ;
#118 = LINE ( 'NONE', #176, #4 ) ;
#119 = VECTOR ( 'NONE', #27, 1000.000000000000000 ) ;
#120 = PRODUCT_DEFINITION_SHAPE ( 'NONE', 'NONE',  #162 ) ;
#121 = CARTESIAN_POINT ( 'NONE',  ( -26.14648791150464646, 19.77126400715627241, 50.00000000000000000 ) ) ;
#122 = LINE ( 'NONE', #124, #12 ) ;
#123 = VECTOR ( 'NONE', #61, 1000.000000000000000 ) ;
#124 = CARTESIAN_POINT ( 'NONE',  ( 26.14648791150464646, -19.77126400715627241, 0.000000000000000000 ) ) ;
#125 = SURFACE_STYLE_USAGE ( .BOTH. , #86 ) ;
#126 = VECTOR ( 'NONE', #11, 1000.000000000000000 ) ;
#127 = ORIENTED_EDGE ( 'NONE', *, *, #20, .F. ) ;
#128 = CARTESIAN_POINT ( 'NONE',  ( -26.14648791150464646, -19.77126400715627241, 50.00000000000000000 ) ) ;
#129 = VERTEX_POINT ( 'NONE', #99 ) ;
#130 = DIRECTION ( 'NONE',  ( -0.000000000000000000, -1.000000000000000000, -0.000000000000000000 ) ) ;
#131 = VECTOR ( 'NONE', #53, 1000.000000000000000 ) ;
#132 = EDGE_LOOP ( 'NONE', ( #144, #98, #23, #37 ) ) ;
#133 = CARTESIAN_POINT ( 'NONE',  ( 26.14648791150464646, 19.77126400715627241, 50.00000000000000000 ) ) ;
#134 = APPLICATION_CONTEXT ( 'automotive_design' ) ;
#135 = FACE_OUTER_BOUND ( 'NONE', #72, .T. ) ;
#136 = EDGE_CURVE ( 'NONE', #149, #147, #24, .T. ) ;
#137 = CARTESIAN_POINT ( 'NONE',  ( 0.000000000000000000, 0.000000000000000000, 0.000000000000000000 ) ) ;
#138 = VERTEX_POINT ( 'NONE', #65 ) ;
#139 = LINE ( 'NONE', #155, #126 ) ;
#140 =( LENGTH_UNIT ( ) NAMED_UNIT ( * ) SI_UNIT ( .MILLI., .METRE. ) );
#141 = LINE ( 'NONE', #13, #75 ) ;
#142 = ORIENTED_EDGE ( 'NONE', *, *, #41, .F. ) ;
#143 = CARTESIAN_POINT ( 'NONE',  ( 26.14648791150464646, -19.77126400715627241, 50.00000000000000000 ) ) ;
#144 = ORIENTED_EDGE ( 'NONE', *, *, #85, .T. ) ;
#145 = FACE_OUTER_BOUND ( 'NONE', #47, .T. ) ;
#146 = PRODUCT_DEFINITION_FORMATION_WITH_SPECIFIED_SOURCE ( 'ANY', '', #21, .NOT_KNOWN. ) ;
#147 = VERTEX_POINT ( 'NONE', #63 ) ;
#148 = EDGE_CURVE ( 'NONE', #52, #15, #80, .T. ) ;
#149 = VERTEX_POINT ( 'NONE', #167 ) ;
#150 = DIRECTION ( 'NONE',  ( 0.000000000000000000, 0.000000000000000000, -1.000000000000000000 ) ) ;
#151 = LINE ( 'NONE', #165, #119 ) ;
#152 =( GEOMETRIC_REPRESENTATION_CONTEXT ( 3 ) GLOBAL_UNCERTAINTY_ASSIGNED_CONTEXT ( ( #96 ) ) GLOBAL_UNIT_ASSIGNED_CONTEXT ( ( #140, #182, #7 ) ) REPRESENTATION_CONTEXT ( 'NONE', 'WORKASPACE' ) );
#153 = ORIENTED_EDGE ( 'NONE', *, *, #172, .T. ) ;
#154 = DIRECTION ( 'NONE',  ( 1.000000000000000000, 0.000000000000000000, 0.000000000000000000 ) ) ;
#155 = CARTESIAN_POINT ( 'NONE',  ( -26.14648791150464646, -19.77126400715627241, 0.000000000000000000 ) ) ;
#156 = APPLICATION_PROTOCOL_DEFINITION ( 'draft international standard', 'automotive_design', 1998, #76 ) ;
#157 = ADVANCED_FACE ( 'NONE', ( #135 ), #40, .F. ) ;
#158 = PLANE ( 'NONE',  #111 ) ;
#159 = ORIENTED_EDGE ( 'NONE', *, *, #46, .F. ) ;
#160 = DIRECTION ( 'NONE',  ( 0.000000000000000000, 0.000000000000000000, 1.000000000000000000 ) ) ;
#161 = COLOUR_RGB ( '',0.7921568627450980005, 0.8196078431372548767, 0.9333333333333333481 ) ;
#162 = PRODUCT_DEFINITION ( 'UNKNOWN', '', #146, #87 ) ;
#163 = ORIENTED_EDGE ( 'NONE', *, *, #170, .T. ) ;
#164 =( GEOMETRIC_REPRESENTATION_CONTEXT ( 3 ) GLOBAL_UNCERTAINTY_ASSIGNED_CONTEXT ( ( #44 ) ) GLOBAL_UNIT_ASSIGNED_CONTEXT ( ( #168, #66, #68 ) ) REPRESENTATION_CONTEXT ( 'NONE', 'WORKASPACE' ) );
#165 = CARTESIAN_POINT ( 'NONE',  ( -26.14648791150464646, 19.77126400715627241, 0.000000000000000000 ) ) ;
#166 = ORIENTED_EDGE ( 'NONE', *, *, #136, .T. ) ;
#167 = CARTESIAN_POINT ( 'NONE',  ( -26.14648791150464646, 19.77126400715627241, 50.00000000000000000 ) ) ;
#168 =( LENGTH_UNIT ( ) NAMED_UNIT ( * ) SI_UNIT ( .MILLI., .METRE. ) );
#169 = SURFACE_STYLE_FILL_AREA ( #84 ) ;
#170 = EDGE_CURVE ( 'NONE', #5, #15, #122, .T. ) ;
#171 = CARTESIAN_POINT ( 'NONE',  ( -26.14648791150464646, -19.77126400715627241, 50.00000000000000000 ) ) ;
#172 = EDGE_CURVE ( 'NONE', #15, #147, #151, .T. ) ;
#173 = VERTEX_POINT ( 'NONE', #181 ) ;
#174 = FACE_OUTER_BOUND ( 'NONE', #92, .T. ) ;
#175 = CARTESIAN_POINT ( 'NONE',  ( 26.14648791150464646, 19.77126400715627241, 0.000000000000000000 ) ) ;
#176 = CARTESIAN_POINT ( 'NONE',  ( -26.14648791150464646, 19.77126400715627241, 50.00000000000000000 ) ) ;
#177 = EDGE_CURVE ( 'NONE', #129, #173, #113, .T. ) ;
#178 = EDGE_CURVE ( 'NONE', #147, #173, #139, .T. ) ;
#179 = PLANE ( 'NONE',  #31 ) ;
#180 = VECTOR ( 'NONE', #130, 1000.000000000000000 ) ;
#181 = CARTESIAN_POINT ( 'NONE',  ( -26.14648791150464646, -19.77126400715627241, 0.000000000000000000 ) ) ;
#182 =( NAMED_UNIT ( * ) PLANE_ANGLE_UNIT ( ) SI_UNIT ( $, .RADIAN. ) );
#183 = MANIFOLD_SOLID_BREP ( 'Boss-Extrude1', #88 ) ;
#184 = ADVANCED_FACE ( 'NONE', ( #43 ), #57, .F. ) ;
#185 = PRESENTATION_LAYER_ASSIGNMENT (  '', '', ( #81 ) ) ;
#186 = LINE ( 'NONE', #58, #180 ) ;
#187 = DIRECTION ( 'NONE',  ( -1.000000000000000000, -0.000000000000000000, -0.000000000000000000 ) ) ;
ENDSEC;
END-ISO-10303-21;
